Coordinates
version=1
nRows=9
nColumns=36
inDegrees=yes

Units are S.I. units (second, meters, Newtons, ...)
If the header above contains a line with 'inDegrees', this indicates whether rotational values are in degrees (yes) or radians (no).

endheader
time	pelvis_tilt	pelvis_list	pelvis_rotation	pelvis_tx	pelvis_ty	pelvis_tz	hip_flexion_r	hip_adduction_r	hip_rotation_r	knee_angle_r	knee_angle_r_beta	ankle_angle_r	subtalar_angle_r	mtp_angle_r	hip_flexion_l	hip_adduction_l	hip_rotation_l	knee_angle_l	knee_angle_l_beta	ankle_angle_l	subtalar_angle_l	mtp_angle_l	lumbar_extension	lumbar_bending	lumbar_rotation	arm_flex_r	arm_add_r	arm_rot_r	elbow_flex_r	pro_sup_r	arm_flex_l	arm_add_l	arm_rot_l	elbow_flex_l	pro_sup_l
      4.43333330	    -11.72235212	      0.07601919	     -1.81914528	     -0.05631770	      1.25082382	      0.18605687	     20.81884348	      2.52322063	      6.14270389	     12.08616346	      0.21094335	     14.45299777	    -13.16840741	     -7.49999987	     19.49522223	     -4.97841561	      5.23024986	     14.07469178	      0.24564971	     19.67791628	      0.85705356	     -7.49999987	      9.08668788	     -2.07379603	    -10.57116757	    -20.13130122	    -18.50434097	     -3.18131652	     39.99720098	     78.97968028	     -1.29941919	    -10.85301057	     -8.44420829	     37.58769799	     77.62687284
      4.45000000	    -11.44632571	      0.10670459	     -1.53728553	     -0.05798474	      1.24462959	      0.18572367	     20.39712571	      2.32495770	      5.74454773	     11.96675554	      0.20885928	     14.72098258	    -13.30649846	     -7.49999987	     20.29784403	     -5.14531932	      4.45581917	     15.65577928	      0.27324490	     20.15521628	     -0.53141744	     -7.49999987	      8.42941535	     -2.15423107	    -10.29179425	    -19.74827780	    -19.11660492	     -3.22935805	     40.68693134	     79.10973566	     -0.91195102	    -10.62524644	     -8.32915070	     37.85727991	     77.71016470
      4.46666670	    -11.32159325	      0.16760660	     -1.06261556	     -0.05949917	      1.24767632	      0.18592433	     20.14376224	      2.01077406	      5.16081009	     11.81261164	      0.20616897	     14.89769742	    -13.12283139	     -7.49999987	     21.21449910	     -5.16767845	      4.19222278	     17.29716306	      0.30189245	     19.95021545	     -2.60450706	     -7.49999987	      8.00743468	     -2.14032003	    -10.23240382	    -19.88609109	    -19.70280907	     -3.31316813	     42.45743625	     78.62114102	     -0.67200662	    -10.41207532	     -7.99331167	     38.34272668	     77.05618148
      4.48333330	    -11.12165276	      0.16936906	     -0.80116054	     -0.05882996	      1.24770738	      0.18552722	     19.77446517	      1.77890035	      4.50905524	     11.70883571	      0.20435773	     15.00001260	    -12.91693285	     -7.49999987	     21.96916975	     -5.31903076	      3.38126991	     18.78631495	      0.32788305	     19.81542179	     -4.18539177	     -7.49999987	      7.53857474	     -2.04812621	     -9.88381513	    -19.83711028	    -20.22300444	     -3.33353094	     43.24560039	     78.62382323	     -0.20766694	    -10.21391076	     -7.24264090	     38.39437989	     76.71431430
      4.50000000	    -11.09372115	      0.00606860	     -0.56091830	     -0.05731505	      1.25178991	      0.18547907	     19.48498764	      1.74277424	      3.95699516	     11.41575801	      0.19924256	     14.61368027	    -12.81695342	     -7.49999987	     22.64468255	     -5.63480680	      2.53849197	     19.87605032	      0.34690252	     19.47949305	     -5.18063850	     -7.49999987	      7.27642826	     -1.85268437	     -9.65613458	    -19.73175636	    -20.45743145	     -3.29187763	     43.49539781	     78.86540808	     -0.07363114	     -9.89221550	     -6.98746509	     38.57452569	     76.81810893
      4.51666670	    -10.95286253	     -0.10368804	     -0.37702424	     -0.05643150	      1.25146562	      0.18544874	     19.07096140	      1.67159303	      3.40484699	     11.02770224	      0.19246971	     14.31606698	    -12.56284024	     -7.49999987	     22.89763427	     -5.82065078	      1.92708233	     20.48235912	      0.35748461	     18.71346243	     -6.59635305	     -7.49999987	      6.99454514	     -1.67296458	     -9.43371512	    -19.80382742	    -20.72334570	     -3.12945313	     44.14327620	     78.42444192	     -0.00830419	     -9.68561990	     -6.46834930	     38.74827976	     76.03022603
      4.53333330	    -10.88507548	     -0.27436927	     -0.28991211	     -0.05474463	      1.25012975	      0.18498082	     18.76480184	      1.81442416	      3.15405302	     10.60076880	      0.18501832	     14.30093752	    -12.04528102	     -7.49999987	     22.99467310	     -6.09911695	      1.26923521	     20.76276724	      0.36237865	     18.02690482	     -7.62390116	     -7.49999987	      6.82473036	     -1.41823428	     -9.11810741	    -20.10101310	    -20.91900218	     -2.98519808	     44.56960611	     78.08386255	     -0.10511613	     -9.60170747	     -6.07433746	     39.12218141	     75.35549438
      4.55000000	    -10.76418910	     -0.49130641	     -0.22778128	     -0.05318443	      1.24768211	      0.18523600	     18.34135902	      2.05876534	      2.92934327	     10.13469917	      0.17688387	     14.19511227	    -11.54383721	     -7.49999987	     22.82889722	     -6.41997409	      0.71214850	     20.61284120	      0.35976195	     17.29639152	     -8.38831224	     -7.49999987	      6.85040953	     -1.14832994	     -8.77749786	    -20.54586252	    -21.03344416	     -2.84681197	     45.18314779	     77.61095042	     -0.44517183	     -9.37578811	     -5.61714275	     39.80125702	     74.61722233
      4.56666670	    -10.74183845	     -0.66225406	     -0.24334104	     -0.05198095	      1.24497174	      0.18669652	     18.03349901	      2.39768898	      2.82108119	      9.81497649	      0.17130366	     14.70202806	    -10.83034298	     -7.49999987	     22.51368985	     -6.69418594	      0.39173555	     20.26855471	      0.35375301	     16.94375656	     -8.81838521	     -7.49999987	      7.00110893	     -0.94627731	     -8.29704204	    -21.27601531	    -20.99647161	     -2.78950838	     45.70104593	     77.92576626	     -0.86557685	     -9.41501117	     -4.97234892	     40.60918439	     74.47580056
